<svg version="1.2" xmlns="http://www.w3.org/2000/svg" viewBox="0 0 208 98" width="208" height="98">
	<title>highlight-ai</title>
	<style>
		.s0 { opacity: .7;fill: #feef38 } 
	</style>
	<g id="Layer 1">
		<g id="&lt;Group&gt;">
			<g id="&lt;Group&gt;">
				<path id="&lt;Path&gt;" class="s0" d="m50.2 61.7c-4.3-3-30.6 2.4-32.6 1.6-1.7-1-1.4-21.9-0.2-25 0.5-1.2 1.1-1.4 2.5-1 1.9 0.6 26.2-2.3 31.4-2.9 0.4 0.6 1.5-1.6 1.7-0.8 0.4 0.9 12.4 0.2 24.8-0.5 4.6-0.2 13.7-0.8 27.3-1.2 2.5-0.1 0.5 1.2 3.4 0.7 6.2-0.9 19.6 0.5 24.2-0.5 3.8-0.8 4.6-0.8 8.1 0.1 3.1 0.8 23.1 1.1 25.4-0.1 0.5-0.4 1-0.2 0.9 0.2 0 0 13.7 1.6 13.7 2 0.1 0.4 0.5 0.7 0.9 0.4 0.7-0.5 15.4-0.7 15.5 0.7 0.4 3.9-3 20-4.9 23.8-2.1 4-10.8-1.7-18.5 0.3-38.4-2.8-34.9-2.1-42.1-0.8-0.8-1.4-4.1 1.9-6.1-0.6-0.8-1-6.7-1.3-8-0.3-0.6 0.4-8.4-0.1-16.5-0.2-8.1-0.2-16.4 0.1-17.9 1.5-6.3-2.5-30.5 2.2-33 2.6z"/>
				<path id="&lt;Path&gt;" class="s0" d="m32.7 60.3c-1.7-1.3-7.1 1.3-11.3 2.5-0.5 0.2-3.6 0.9-4.1 0.6-0.6-0.7-2.3-24.1-2.3-24.9-0.1-1.9 0.1-0.7 0.7-0.6 0.3 0.1 1.6-0.2 1.9-0.3 1.6-0.6 3.7-1.7 5.1-2.6 0.4 0.6-0.2-1.5 0.2-0.8 1.1 1.8 13.9-6.4 15.7-7.4 0.8-0.4 0.7 1 1.5 0.1 0.7-0.9 2.4-1.6 3.9-2.3 5.9-2.6 3.1-3.9 6.4-3.5 1.5 0.1 8.2-3.3 8.6-4.8 0-0.5 0.2-0.4 0.4 0 0 0.1 1.3-0.2 2.7-0.5 1.4-0.2 2.8-0.4 2.9-0.2 0.1 0.4 0.4 0.6 0.4 0.2 0-0.6 5.6-3.4 6-2.1 1.2 3.7 4.2 19.7 4.7 23.7 0.6 4.2-3.4-0.1-4.8 3-2.1 0.6-5.7 1.8-10.5 3.7l-1.6 2.3c-0.9-1.2-0.4 2.4-2.1 0.4-0.7-0.8-2.6-0.1-2.6 1 0 0.4-2.6 1.2-5.3 2.3-2.6 1.1-5.3 2.5-5.2 4-2.7-1.2-7.8 3.8-11.3 6.2z"/>
				<path id="&lt;Path&gt;" class="s0" d="m76.5 80.6c-4-2.5-25 5.3-27 4.7-1.7-0.9-4.4-21.5-3.9-24.7 0.2-1.2 0.7-1.5 2-1.2 1.6 0.4 19.7-4.4 25.9-5.9 0.5 0.6 1-1.7 1.3-1 0.8 1.3 35.9-6.1 43.3-7.3 2.1-0.3 0.6 1.1 3 0.3 5-1.7 16.3-2 20-3.6 3-1.2 3.7-1.3 6.7-0.9 3.2 0.4 19.3-2.2 21-3.8 0.4-0.4 0.7-0.3 0.8 0.1 0 0 11.5-0.5 11.5-0.2 0.2 0.5 0.6 0.6 0.8 0.3 0.6-0.5 12.5-3.3 12.8-2 1 3.8 1.2 20.2 0.3 24.3-1 4.3-9.4 0.2-15.4 3.3-34.5 3.5-27.9 2.6-35.3 5.3-0.9-1.3-3.1 2.5-5.2 0.2-0.8-0.9-5.8-0.4-6.8 0.7-0.4 0.5-7 1-13.8 1.8-6.8 0.9-13.7 2.1-14.7 3.6-5.1-1.6-23.1 4.6-27.3 6z"/>
			</g>
		</g>
	</g>
</svg>